<mxfile host="app.diagrams.net" modified="2023-09-04T09:51:04.696Z" agent="Mozilla/5.0 (Windows NT 10.0; Win64; x64) AppleWebKit/537.36 (KHTML, like Gecko) Chrome/116.0.0.0 Safari/537.36 Edg/116.0.1938.69" version="21.7.2" etag="5ehByULYV48rsPBeZi7Z" type="github">
  <diagram name="Page-1" id="P9eQhQSyyDdXS-ooGdzy">
    <mxGraphModel>
      <root>
        <mxCell id="0" />
        <mxCell id="1" parent="0" />
      </root>
    </mxGraphModel>
  </diagram>
</mxfile>
